<?xml version="1.0" encoding="UTF-8"?><svg id="a" xmlns="http://www.w3.org/2000/svg" width="95.18" height="95.8" viewBox="0 0 95.18 95.8"><defs><style>.b{fill:#fff;stroke-width:0px;}</style></defs><path class="b" d="M73.57,68.13l-1.09,6.57-.35.98-3.6,5.37-.97.54-10.79.57-1.14-.2-5.37-2.66-.46-.81.63-4.51.45-.81,13.57-11.52.51-.47-.1-.14-12.43,8.08-.12-.08,3.77-11.66-.16-.07-.55,1.05-6.77,13.78-.57,1.94-.54,3.74-.61-.22-3.31-1.63-.76-1.31.57-10.55v-.26s-.16-.03-.16-.03l-2.06,10.81-.48-.44-4.71-5.43-.33-.56-.82-5.17.63.12,5.1,3.36.67.65.16-.13-1.85-2.99-2.88-2.77-5-4.22-3.14-6.1-1.36-6.45.05-1.02,1.96-6.43.19-.75-3.16.22-1.68-.56-.46-.22-2.28-1.81,2.31-2.06-.12-.16-2.12,1.32-.64-1.95,1.02-3.27-.26-2.16-.16-1.9.15-.51,2.14-3.42,5.03-4.75.24-.49-1.39.78-2.11,1.21h-.56s-2.12-2.47-2.12-2.47l1.82.19.11-.16-3.46-4.7.1-.11,3.43,1.27,7.09,2.64.79-.42,1.16-4.39.12-.32.65.48,7.79,6.2,1.26,1.5,3.29,4.62,1,2.79.41,3.67.61,1.02,3.56,2.93.47.81.87,5.06.17.74.17.02.99-3.01,2.51,1.24,6.55,3.26,1.02,1.24,5.18,18.05,1.73,6.02.26.73M42.31,59.87l.2.12.43-.45,5.86-7.22.42-.81,3.11-11.03v-.39s-.15-.05-.15-.05l-9.86,19.82h0ZM41.96,24.79l-.13-.06-.19.17-3.21,4.83-.28.93-.49,5.12-.03,1.53.12.02,4.21-12.54h0ZM40.43,19.03l.16-.11-5.34-7.34-.18.03-1.21,5.04,2.31-.69,1.22.27,3.03,2.81h0ZM32.01,23.88l-.06-.13-5.17,1.42-.39.31-1.49,4.12.15.08,1-1.42,1.46-.46.3.02.18-1.11.88-1.16,2.69-1.37.45-.3h0ZM29.32,27.22l2.02-1.84-2.02,1.84h0Z"/><path class="b" d="M72.79,78.89c.74,1.67,1.42,3.16,2.07,4.67.06.13-.05.38-.14.53-1.1,1.67-2.21,3.34-3.35,4.98-.17.24-.56.43-.86.45-3.75.23-7.5.43-11.25.64-1.53.08-3.07.19-4.6.24-.37.01-.8-.05-1.12-.23-5.8-3.26-11.59-6.54-17.36-9.84-.29-.17-.57-.49-.7-.8-1.17-2.75-2.3-5.52-3.48-8.27-.24-.57-.28-1.02.1-1.52.23-.31.4-.67.64-1.09.81.96,1.55,1.84,2.3,2.73,1.34,1.6,2.68,3.21,4.03,4.8.22.26.5.5.8.65,5.04,2.48,10.08,4.97,15.16,7.38.68.32,1.59.21,2.38.18,3.77-.16,7.54-.37,11.32-.53.52-.02.84-.19,1.13-.62.93-1.41,1.89-2.8,2.94-4.33Z"/><path class="b" d="M47.68,89.72c-2.84-.29-5.41.67-8.06.95-.36.04-.62.05-.82-.33-.09-.16-.36-.26-.57-.32-.23-.07-.64,0-.7-.11-.18-.36-.34-.8-.29-1.18.13-1.07.61-1.9,1.55-2.59.99-.73,1.69-.84,2.75-.13,1.86,1.24,3.84,2.29,5.77,3.43.1.06.2.14.38.28Z"/><path class="b" d="M35.69,88.72c-.68-.14-1.28-.24-1.87-.41-.16-.05-.35-.33-.35-.5.01-.79.07-1.58.15-2.37.02-.15.18-.33.33-.41.86-.46,1.74-.9,2.62-1.33.14-.07.35-.11.47-.05.56.29,1.09.61,1.69.96-.79.56-1.66.93-2.14,1.58-.49.67-.6,1.63-.9,2.53Z"/><path class="b" d="M93.4,33c.13.42.37.18.45.22-.33-.68-.52-.18-.45-.22Z"/><polygon class="b" points="89.89 26.61 90.07 26.66 89.31 25.86 89.89 26.61"/><path class="b" d="M86.43,20.83c-.08.83,1.39,2,1.88,3.12v.23s.66.24.66.24c-.85-1.2-2.1-2.65-2.55-3.58Z"/><path class="b" d="M85.09,17.27c-.02.31-.63-.51.48.71-.03-.08-.04-.11-.06-.16-.09-.12-.22-.28-.43-.56Z"/><path class="b" d="M85.52,17.83c.46.56-.16-.48,0,0h0Z"/><path class="b" d="M83.23,15.38l.8.56c-.05-.23-.62-.86-.33-.7-.76-.64-.7-.41-.47.13Z"/><path class="b" d="M82.32,15l.4.3c-.02-.1-.1-.2-.4-.3Z"/><path class="b" d="M83.56,15.94l-.84-.64c.03.16-.08.29.38.3-.17.05.08.09.47.34Z"/><path class="b" d="M83.91,16.42c.29.46.66,1.04-.1.44.62.65.92.91.96.79.01-.1-.2-.6-.86-1.23Z"/><path class="b" d="M85.77,20.89c.1.21.21.42.28.65l.47.4c-.12-.1-.27-.4-.4-.66-.15-.25-.3-.45-.35-.39Z"/><path class="b" d="M79.08,11.09c-.12.05.05.44,0,.6l.62.36c-.22-.29-.7-.8-.63-.96Z"/><path class="b" d="M79.09,11.69l-.92-.53c.7.63.89.67.92.53Z"/><polygon class="b" points="81.78 15.3 83.26 16.25 81.55 15.07 81.78 15.3"/><polygon class="b" points="75.87 8.63 76.52 8.76 75.41 8.47 75.87 8.63"/><path class="b" d="M73.62,7.15c.5.04-.34-.62.14-.5-.66-.33-1.3-.48-1.87-.62.56.21,1.11.55,1.73,1.11Z"/><path class="b" d="M70.96,5.79c.28.1.6.17.94.25-.3-.11-.61-.2-.94-.25Z"/><path class="b" d="M76.8,10.02c-.02-.1-.04-.34-.48-.74l.15.5c.1.07.22.16.33.24Z"/><path class="b" d="M76.47,9.79v-.02c-.37-.27-.62-.45-.72-.53.09.07.31.23.72.54Z"/><path class="b" d="M76.88,10.08s-.05-.04-.08-.06c.01.05.03.07.08.06Z"/><path class="b" d="M80.03,13.19c-.59-.27-1.67-.94-.92.06.48.12.05-.46.92-.06Z"/><path class="b" d="M77.06,10.69c.29.23.54.51.81.76.04-.08-.04-.31.25-.18-.35-.19-.68-.41-1.05-.58Z"/><polygon class="b" points="76.55 10.46 77.06 10.69 76.74 10.43 76.55 10.46"/><path class="b" d="M72.47,7c-.49-.12-.95-.37-1.48-.64.52.37,1.07.73,1.62,1.03.13-.04.46-.06-.14-.39Z"/><path class="b" d="M74.44,8.32s-.07-.03-.1-.05c.04.06.08.1.1.05Z"/><polygon class="b" points="65.74 3.83 65.8 3.92 65.84 3.88 65.74 3.83"/><path class="b" d="M72.68,7.5c.38.29.67.36.96.42-.33-.15-.67-.32-1.02-.52-.06.02-.08.04.06.1Z"/><path class="b" d="M69.44,5.15c.2.16.43.33.66.53-.16-.22-.54-.58-.66-.53Z"/><path class="b" d="M74.26,8.11l.07.03c-.09-.15-.09-.11-.07-.03Z"/><path class="b" d="M74.26,8.11c-.23-.1-.43-.15-.63-.2.25.14.49.27.71.36-.04-.05-.07-.12-.08-.17Z"/><path class="b" d="M63.37,5.17c.16-.23,1.45-.18,2.27.59,1.02.22.81-.95.16-1.84-.08.12-.11.18-1.21,0,.33.22,2.08,1.27,1.14,1.15-.67-.23-.94-.34-1.11-.46-.17-.13-.23-.26-.53-.44.42.54-1.89-.08-1.77.54l1.22.22c0,.09-.47.07-.18.25Z"/><path class="b" d="M67.69,4.81l.43.15c-.45-.26-.73-.52-1.27-1.01-.75-.18-.93-.14-1.01-.07l2.01.95-.16-.02Z"/><path class="b" d="M69.96,5.82c-.44.09-1.5-.19-1.05.38,1.18.55.93.19,1.68.44-1.88-.98.62.14-.64-.78.39.16.73.33,1.04.5-.32-.23-.62-.45-.89-.68.01.02.02.03.03.04h0s0,0,0,0c.06.08.08.12,0,.05,0,0-.03-.01-.04-.02-.03.03-.09.05-.14.06-.51-.37-.05-.12.14-.06.01-.01.04-.02.05-.03h0c-.64-.32-1.35-.51-2.02-.77.39.24.93.43,1.83.86Z"/><path class="b" d="M77.81,13.05c-.03-.06-.01-.08,0-.1-.13-.06-.18-.07,0,.1Z"/><path class="b" d="M77.29,12.35c.14.06.32.05.67.39.26.35-.1.12-.15.21.28.13.94.5.33-.23l-.14-.06c-.57-.63-1.14-1.66-1.01-1.59.01.39.05.69.29,1.28Z"/><path class="b" d="M73.72,8.95c-.49-.31-1.04-.53-1.58-.78l.62.68.05-.16c.81.58.72.32.9.27Z"/><path class="b" d="M65.61,3.59l.34-.22c-.37,0-.77.06-1.15.09l.8.13Z"/><polygon class="b" points="63.39 2.87 63.57 2.62 62.93 2.59 63.39 2.87"/><path class="b" d="M18.88,81.2l.42.25c-.19-.13-.32-.2-.42-.25Z"/><path class="b" d="M16.35,78.76l-.16.04c.17.06.26.07.16-.04Z"/><path class="b" d="M11.6,17.25c-.71.4-1.61.8-1.29.93l.41.02c.3-.44.6-.73.88-.95Z"/><path class="b" d="M2.44,53.44c.02-.07.04-.15.07-.22-.12-.17-.24-.32-.34-.46.09.21.15.45.27.69Z"/><path class="b" d="M3.86,53.78l-.06.96c.04-.22.06-.53.06-.96Z"/><path class="b" d="M35.67,90.11c.21-.05.41-.08.63-.15-.84-.25-.51.01-.63.15Z"/><path class="b" d="M39.9,1.09c-.67-.02-1.21.01-1.67.07.83.05,1.51.23,1.67-.07Z"/><path class="b" d="M15.48,82.82c.28.17.43.21.47.15-.29-.17-.47-.25-.47-.15Z"/><path class="b" d="M36.38,1.63c.12,0,.24-.01.36-.02.46-.17.91-.38,1.5-.45-.61-.04-1.28.09-1.86.47Z"/><path class="b" d="M90.41,60.24s.05-.1.08-.14c-.04-.03-.05.04-.08.14Z"/><path class="b" d="M94.65,39.6c.05.21.11.55.17.88,0-.16-.05-.43-.17-.88Z"/><path class="b" d="M54.32.58c.49.05.08-.02,0,0h0Z"/><path class="b" d="M56.47,2.17c-.11.02-.19.06-.22.13.05-.07.13-.11.22-.13Z"/><path class="b" d="M32.37,4.97s-.02,0-.04.01c.15,0,.13,0,.04-.01Z"/><path class="b" d="M55.04.83c-.18-.06-.38-.13-.61-.18.1.04.28.1.61.18Z"/><path class="b" d="M54.96.66c.17.04.3.06.42.09.07-.04.02-.09-.42-.09Z"/><path class="b" d="M53.63.5c.28.03.54.08.79.14-.09-.04-.13-.06-.1-.07-.14-.02-.35-.04-.69-.08Z"/><path class="b" d="M67.43,88.68s.07-.01.1-.02c.36-.33.18-.22-.1.02Z"/><path class="b" d="M7.8,29.47s0-.03,0-.05c-.01.02-.03.04-.04.06h.03Z"/><path class="b" d="M7.35,31.06c-.08-.79.13-1.15.42-1.59l-1.08.11.66,1.48Z"/><path class="b" d="M25.76,86.03l-.84-.82c1.45.27,2.21.89,1.5.02-.31.38-1.33-.08-2.24-.69-.92-.62-1.83-1.23-2.2-.86l-.49-.61c.17.13.24.1.4.23-.91-1.22-1.33-.05-2.71-1.41-.46-.49-.71-.91-.29-.7l-1.29-.78c-.31-.3-.11-.36.2-.06-.58-.47-1.09-1.03-1.64-1.55h.03c-.34-.13-1.03-.49-1.35-.68-.29-.52.28.14.27-.06-.35-.25-.71-.49-1.05-.75-.06-.29.12-.26.38-.09.28.16.65.46.94.79-.03-.76-.25-.9-.64-1.13-.35-.25-.85-.62-1.39-1.79l.82.84c-.02-.96-.74-1.53-1.26-2.77.03.34.91,2.61-.13,1.71-.17-.35-.46-.76-1.07-1.22.29-.22-.16-.76-.66-1.5l.43-.21c-.63-.73-.8-.53-1.28-.9-.54-.93-.35-1.3-.17-1.68-.7-1.56.01,1.35-.98-.42-.24-.68-.52-1.22-.86-1.77-.34-.55-.8-1.09-1.2-1.85-.21-1,.33.05.33-.34l-.67-.69c-.07-.21.07-.18.13-.17-.41-.65-.47.12-1.02-.95-.29-.07-.37-.69-.41-1.47-.02-.79-.08-1.69-.56-2.33.04-.38.33.09.48-.06-.9-1.83-.76-1.55-1.53-3.12l.08-1.45c-.19,1.08-.82-.16-1.36-1.3-.11.39-.21.73-.25.96-.2-.62-.38-1.24-.48-1.88.06-.24.24-.06.46.23-.05-.12-.1-.24-.14-.34.14-.7.43-.36.73.09-.08.24-.17.48-.25.71.36.43.75.82,1.02.69-.07-.11-.16-.34-.23-.59.1.11.18.18.22.12.04-.07-.11-.24-.24-.54l.51-.47-.22-.08.19-2.43c-.17-.42-.34-.84-.51-1.27-.14-.43-.27-.87-.4-1.35-.24-.95-.51-2.06-.48-3.48.29.73.62.21,1.07.29-.57.71.11,2.15-.05,3.56.08-.74.3-.57.37-.38l-.35-2.56c.37.09.3-.52.57-1.15-.82.42-.24-1.94-.32-3.01.26-.02.48.27.25,1.51.76-1.28-.68-1.95.15-3.2-.07.3-.14.46-.05.6-.05-.75.53-2.44.65-1.98l-.07.3c.14-.49.3-1.12.45-1.79.18-.66.42-1.35.59-2,.36-1.3.53-2.44.32-2.69.08.01.6.53.69.7-.2-1.38-.32-2.79-.45-4.26.36.53,2.04-.02,1.62,1.66.29-.4.55-.93.89-1.91-.24.25-1.11.37-.93-.06,1.17-.81.73-.61,1.94-1.69-.35.37-.82-.54-.4-1.22.05.17.76.38.69.68.08-.71.16-1.44.33-2.12-.16.49.55.46,1,.24-.25.07.98-1.37,1.21-1.84l-.63.56c1.35-1.74.37-2.48,1.86-4.18-.05.32.38,1.2,1.19.43.02-.33-.04-1.14.15-2.03.18-.88.53-1.9,1.16-2.74l.45-.09c.32-.43.61-.88.98-1.26-.19.57-.52,1.56-.87,2.59-.36,1.03-.76,2.05-1.06,2.74.72-.45.37.04,1.24-.83.47-.13-.23.71-.48.97l2.15-1.85c-.22-.14.09-.61.41-1.08.34-.44.72-.85.54-.98-.74.74-1.32,1.65-1.96,2.48-.22-.14-.14-.71.19-1.42.17-.35.39-.77.7-1.13.32-.36.7-.71,1.12-1.01.54-.17.25.94.4,1.04.1-.3,1.32-1.46,1.54-1.48l-.52.75c.5-.27.76-.69,1.07-1.1.31-.41.72-.74,1.42-.92.42-.23,1.53-.21,1.44-.5-.94-.08-2.05-1.49-1.82-2.14.08-.03.7-.25,1.38-.49.66-.26,1.45-.35,1.75-.37.92.04-.55,1.48.24,1.52-.04-.13.26-.48.4-.61.5-.12.02.47.95-.07-.07-.54,1.98-.95.26-.62.9-.59,1.03-.47,2.18-.95-.51-.16.62-1.44,1.6-1.97-.01.14.27.22.41.25.52-.19.99-.34,1.42-.48.44-.11.86-.17,1.27-.25.82-.15,1.62-.31,2.61-.57.21.06,1.2-.02.84.28.27-.14.5-.35,1.12-.46,1.28.24-1.37.29-.35.67.02-.3,1.52-.66,2.39-.99-.34-.41-2.08.25-2.92.57-.14-.62,1.3-1.52,3.46-2.17,1.73-.38.8.33,1.09.19,1.64-.04,2.32-.36,2.95-.63.31-.14.61-.26,1.01-.33.39-.06.88-.01,1.57.12,1.08.45.03.8.26,1.1-.71.05-1.24-.04-1.73-.13-.48-.05-.92-.12-1.4-.09l1.18.12c-.45.16-1.38.32-1.89.23.9.22,5.48-.08,7.92.63.45-.07,1.23-.11.89-.32l-.79-.05c-.69-.42,1.54-.24.56-.53.55-.04,1.14-.11,1.78-.11.32,0,.65,0,1,.05.34.07.69.16,1.05.3l.18.52c0-.14-.91-.5-1.35-.46.66-.05,2.12,1.14,2.93.72l-.96-.56c1.1.05,2.58-.2,3.82.44-.46-.63-.31-.06-1.09-.87.64.83-3.42-.85-2.26.14-.84-.81-1.61-.71-2.82-1.41.01.16.41.35-.72.12-.06.04-.19.08-.27.1-.03,0-.05-.01-.08-.02l.06.03c-.05.02-.06.02.02,0,.26.1.47.21.55.31-.62.26-2.42,0-3.04.1-.66-.16.3-.14-.05-.35-.31.04-.62.09-.94.18-.06-.34-1.77-.63-.15-.76l-1.45-.07c-.85-.22-2.04-.36-2.76-.22-.69-.03-1.72.47-1.13.18l-2.26.35-.03-.08c-1.13,0-2.25.38-3.42.63-1.16.27-2.39.4-3.69.49-.71.28-1.44.58-2.68.82l-.32-.21c-.91.33-2.85.74-3.15,1.15-.32-.09-.76-.04-1.27.1-.26.07-.53.16-.81.26-.27.12-.55.27-.83.42-1.13.61-2.29,1.33-3.09,1.66l.13.36c-1.05.55-1.92,1.3-3.07,2.2l.26.23c-.94.84-2.73,1.69-4.29,2.94.02-.18.44-.47.77-.63-.58.22-1.11.55-1.58.94-.45.42-.84.92-1.23,1.4-.75.99-1.53,1.88-2.42,2.52-.26.49-.54.75-.85.98.03-.04.06-.08.07-.11-.04.04-.09.1-.15.16-.2.14-.41.28-.62.45.21-.12.4-.24.55-.36-.26.32-.64.82-.97,1.34l-.45-.03s-.05.07-.08.11c-.5.38-.18.47.24.4-.16.26-.25.55-.31.78-.75.05-.76,1.42-1.65,1.61,0,.26-.39.92-.74,1.59-.29.71-.54,1.43-.34,1.73-.08-.02-.2.11-.05-.18-.4.55-.8,1.1-.94,1.71l-.55.03-.09.79-.03.81c-.62.69-.92.97-.87,0-.39,2.2-.55,1.69-.78,3.56l-.25-.19c-.2.63-.16,1.74-.52,2.03-1.14,1.17-2.12,6.9-2.97,10.6.49-.32.32.1.14.64-.14.54-.32,1.19.02,1.29-.21.21-.35.73-.51.11.15,1.94-.51,2.93.19,4.25-.19.23-.33-.41-.44-.2.05.16.22.61.1.82-.11.2-.19-.28-.3-.58.15,2,.8,2.15,1.41,2.24-.11.5-.15.88-.1,1.22.07.33.23.62.48.94-.14.36-.25.96-.51-.23.09.67.37,4.2.89,4.16-.06.23.21.93.31,1.09.37,1.49.36,1.63.8,3.07l-.03-.43c.68.41.5,1.14,1,2.25h-.07c.3,1.36.46,1.62.6,1.88.07.13.14.26.23.53.07.27.2.67.41,1.33l.26-.28c.81-.11.67,2.36,1.67,3.65-.04-.2-.06-.41-.09-.61.6.63.37,2.59.76,3.42.05.2-.26-.2-.44-.4.88,2.22.56,0,1.58,1.39-.02.41-.78.04-.13,1.02.1.29.79.84,1.53,1.5.76.64,1.47,1.46,1.87,2.17-.1-.38-.19-.76.47-.28.9.8,1.73,2.95,3,3.22.08.14.09.22.06.26.82.49,2.48,1.78,3.11,1.88-.06.76,1.25,1.47,2.43,2.11.6.31,1.15.63,1.56.87.4.24.62.48.46.72l2.53,1.37-.12.07c.77.52,1.39.67,1.85.79.47.11.82.12,1.17.12.35.24.03.22-.03.26,2.33,1.35,2.68,1.28,4.96,1.49l.11.43c.32,0,1.18.47,2.35.84.58.2,1.23.41,1.89.58.67.17,1.35.32,2.03.27-.03.04-.1.1-.32.12.76,0,1.56.12,2.37.28.81.15,1.62.43,2.39.49,1.54.21,2.87.28,3.41-.37.65-.06,1.29-.26,1.93-.39-2.5.04.35-.61-.68-.77.96-.14,2.53.26,1.34.4l-.19-.06c-.41.72,3.12.09,3.09.52,4.92-.62,9.7-1.67,14.03-3.5-.24-.09-.47-.16-.71-.27.5-.21.97-.46,1.46-.69.43-.08.7.13-.35.63.68,0,1.63-1.11,1.6-1.23,2.13-.83-.5.97.13.67l.83-.47-.22.04c.57-.57.56-.72,1.74-1.47.8-.38.56.05.86-.12.02.03.13-.01.46-.27l1.76-1.07-.94.09c.65-.65,1.61-1.04.55-.91.78-.08,2.3-1.23,3.75-2.36,1.38-1.21,2.57-2.52,2.97-2.72.17-.28.36-.53.56-.79.18-.27.37-.53.57-.8.41-.52.87-1.05,1.38-1.62-.32.23-.84.09.06-.87.22.49.75.13,1.26-.49.52-.62,1.13-1.41,1.74-1.65-.48.26.05-.54.51-1.29.45-.76.74-1.53.09-1.04.62-.92.35.14.98-.47.25-.63.56-1.25.93-1.88.18-.31.37-.63.56-.95.17-.33.35-.67.53-1.01.7-1.38,1.59-2.78,2-4.39-.11-.09-.47.36-.43-.37l1.19-1.44c.07-.32-.06-.52-.11-.76-.04-.24-.01-.52.33-1.04-.15.13-.36.33-.3-.1,1.12-3.02,1.59-6.32,1.7-9.61.02-1.65.15-3.3.05-4.94-.01-.82,0-1.65.03-2.48.05-.83-.04-1.65,0-2.49-.11.92-.23.33-.35-.33.01.45-.32.04-.49.16,0-.92.06-1.86.02-2.79-.61-.37-.8-2.83-1.33-2.98l.31.81c-.83-.94-.79,1.86-1.53,1.85.23.26.35.6.41.99.03.4-.02.85-.04,1.31-.05.94-.06,1.93.56,2.87-.07.46-.29-.35-.42-.09.42.46.48,1.08.42,2.23l-.08-.12c.12,1.59.21,2.74.01,3.92-.07.59-.15,1.19-.23,1.87-.08.68-.14,1.43-.35,2.3l.39-.22c-.15.76-.29.9-.42,1.25.41.95.33-2.14.81-1.27-.43.47-.62,1.81-.81,3.12-.23,1.3-.62,2.52-1.07,2.76-.28,1.14.48-.24.2.91l-.29.25.21.37c-.22.75-.67,1.02-.84.99.08-.17.12-.52.17-.71-.57.86-.82,2.68-1.02,2.98l.49-1.02c-.22.77-.43,1.6-.76,2.4-.35.79-.72,1.6-1.08,2.41-.18.41-.35.81-.53,1.21-.21.39-.41.77-.61,1.15-.39.76-.74,1.52-1.03,2.25l.26-.12c-.22.57-.43.93-.63,1.2-.19.27-.36.46-.53.65-.35.38-.73.77-1.43,1.88l.02-.1c-.15.55-.56,1.12-1.04,1.66.28-.63-1.1.7-.71-.1-1.44,2.16-.6,1.16-1.32,2.84l-.49.08c-.24.58-.19.71-1.1,1.69.62-.93-.9.27-.24-.79-.6.37-1.05.75-1.42,1.13-.38.37-.72.68-1,.99-.58.61-1.04,1.08-1.8,1.11-.53,1.4,2.13-1.14,1.67-.57.63-.18-.47,1.1-1.21,1.59-.7.57-1.81.06-3.64,1.27.19-.11.17-.17.35-.29-.4.14-.7.41-1.03.68-.33.28-.7.55-1.23.62-.28.66-1.18.56-1.06,1.17l1.75-1.04c-.94.65-1.61,1.76-3.48,2.33.09-.18.53-.58.84-.83-.58.08-.9.62-1.51.66-.07-.56,2.16-1.22,3.05-2.16-.64.04-1.87,1.43-1.61.57-.21.57-.71.79-1.28,1.02-.59.19-1.26.35-1.85.91l-.04-.37c-.2.14-.59.47-1,.61l.57-.71c-.99.79-2.24.54-3.29.99,1.15-.31,1.31-.25,1.32-.11,0,.15-.14.39.38.33-2.74,1.3-1.92-.41-5.04.59.42-.13,1.67-.22,1.03.13-.62.13-1.47.12-1.89-.01-2.14.42.4.31-.48.67-.81-.31-1.04.35-1.99.64l-.05-.36c-.63.06-.98.1-1.19.16-.21.07-.28.16-.34.26-.12.19-.21.37-1.36.3l.92-.56-1.17.2.22-.43c-.63.19-1.05.27-1.46.3-.42.04-.83.01-1.46-.09.29.27-.17.65-1.3.62-.76-.24.44-.33-1.15-.34.37-.21.77-.48,1.44-.12.07-.12.36-.21.43-.33-.8-.28-2.03-.14-2.6-.15.22.02.48.05.61.11-.38.06-.77.15-1.16.19l-1.16.09c-.34-.18-.04-.25.25-.32-.46-.02-.8.1-1.48.03.22-.27.22-.57,1.18-.58l-2.18.03c-.13-.13-1.03-.51-.73-.58-1.1-.46-2.98-.08-4.46-.75-.09.03-.27.03-.6-.04-.7-.27-1.33-.6-2.01-.89-.34-.15-.7-.26-1.07-.39-.37-.14-.77-.27-1.21-.36l-.7-.89c-1.31-.46.97,1.16-1.23.39-1.58-.53-.36-.65-.8-1.04-.82-.16-2.33-.41-3.43-1.52.49.16.79.42,1.21.62ZM12.79,74.91c.27.22.86.59.85.92-.56-.04-.59-.4-.85-.92ZM2.96,50.78c.13.25.1.64-.01,1.09-.05-.32-.06-.68.01-1.09ZM48.91.44s-.03,0-.04.02c-.8-.17-.52-.1.04-.02ZM50.56.66c.17-.04.16-.09.09-.15-.12.09-.49.08-.92.04.11.1.33.17.82.11ZM73.05,88.35l-.32.09c.56-.48.44-.29.32-.09Z"/><path class="b" d="M3.7,53.73c-.05.1-.11.14-.17.17.08.12.15.12.17-.17Z"/><path class="b" d="M35.56,90.13l.05.02s.05-.03.07-.05l-.12.02Z"/><path class="b" d="M27.2,8.82c-.31.1-.5.12-.64.11.03.09.19.09.64-.11Z"/><path class="b" d="M59.39,1.38l-1.07-.16c.51.1.67.22.91.34,0-.09-.17-.25.15-.18Z"/><path class="b" d="M67.25,6.5c.16.02.29.13.45.15l.03-.17c-.59-.25-1.05-.31-.48.02Z"/><path class="b" d="M60.05,2.77c0,.33.68.32,1.38.53-.04-.01-.08-.02-.12-.04.33-.34-.45-.47-1.26-.49Z"/><path class="b" d="M61.59,3.35c.22.06.44.13.64.21.13-.13-.25-.12-.64-.21Z"/><path class="b" d="M52.68.61c.34.13.26-.36.45-.21.43-.34-2.4.16-.45.21Z"/><polygon class="b" points="60.35 3.87 60.2 3.45 59.73 3.65 60.35 3.87"/><path class="b" d="M54.84,2.43l1.13.26c0-.06.15-.08.33-.08-.7-.11-1.47-.29-1.46-.18Z"/><path class="b" d="M56.29,2.61c.36.07.71.16.92.15-.2-.04-.62-.14-.92-.15Z"/><polygon class="b" points="58.8 3.62 58.48 3.46 57.7 3.25 58.8 3.62"/><path class="b" d="M42.43,2.13l-1.23.31c-.11.15.24.17.7.05.29-.14.74-.26.54-.35Z"/><path class="b" d="M46.28,2.88c-.34-.06-.36-.14-.56-.25l-.02.47.57-.21Z"/><path class="b" d="M42.7,3.23c-.11.15-1.71.65-.18.38.1-.17,1.32-.41.18-.38Z"/><polygon class="b" points="24.91 8.62 25.17 8.44 24.75 7.81 24.91 8.62"/><path class="b" d="M13.87,20.59c1.07-.96-.14-.56.87-1.39.08-.37-.83.68-.73.32-.42.78-.8,1.06-.15,1.07Z"/><path class="b" d="M14.02,19.52c.07-.13.14-.26.2-.41-.13.22-.18.34-.2.41Z"/><polygon class="b" points="94.25 35.97 94.15 34.97 94.07 35.66 94.25 35.97"/><path class="b" d="M93.21,34.29l.4-.37-.57-.44c.08.21.23.61.17.81Z"/><path class="b" d="M12.1,72.29h-.13c-.03.2.08.38.29.75l-.15-.75Z"/><polygon class="b" points="20.07 81.58 19.91 81.44 19.94 82.04 20.07 81.58"/><path class="b" d="M28.98,86.72c-.38-.17-.85-.33-1.21-.56.81.41,1.07,1.09,1.21.56Z"/></svg>